<?xml version="1.0" encoding="UTF-8" standalone="no"?>
<!DOCTYPE svg PUBLIC "-//W3C//DTD SVG 1.1//EN"
 "http://www.w3.org/Graphics/SVG/1.1/DTD/svg11.dtd">
<!-- Generated by graphviz version 2.43.0 (0)
 -->
<!-- Title: %9 Pages: 1 -->
<svg width="182pt" height="132pt"
 viewBox="0.00 0.00 181.50 132.00" xmlns="http://www.w3.org/2000/svg" xmlns:xlink="http://www.w3.org/1999/xlink">
<g id="page0,1_graph0" class="graph" transform="scale(1 1) rotate(0) translate(4 128)">
<title>%9</title>
<polygon fill="white" stroke="transparent" points="-4,4 -4,-128 177.5,-128 177.5,4 -4,4"/>
<!-- 511 -->
<g id="node1" class="node">
<title>511</title>
<ellipse fill="none" stroke="black" cx="105.5" cy="-91" rx="18" ry="18"/>
<text text-anchor="middle" x="105.5" y="-87.3" font-family="Times,serif" font-size="14.00">2</text>
<text text-anchor="middle" x="73.5" y="-112.8" font-family="Times,serif" font-size="14.00">511</text>
</g>
<!-- 509 -->
<g id="node2" class="node">
<title>509</title>
<polygon fill="none" stroke="black" points="28,-0.5 28,-36.5 101,-36.5 101,-0.5 28,-0.5"/>
<text text-anchor="middle" x="41" y="-14.8" font-family="Times,serif" font-size="14.00">0</text>
<polyline fill="none" stroke="black" points="54,-0.5 54,-36.5 "/>
<text text-anchor="middle" x="77.5" y="-14.8" font-family="Times,serif" font-size="14.00">NYT</text>
<text text-anchor="middle" x="14" y="-40.8" font-family="Times,serif" font-size="14.00">509</text>
</g>
<!-- 511&#45;&#45;509 -->
<g id="edge1" class="edge">
<title>511&#45;&#45;509</title>
<path fill="none" stroke="black" d="M96.8,-75.05C90.27,-63.81 81.31,-48.4 74.48,-36.66"/>
</g>
<!-- 510 -->
<g id="node3" class="node">
<title>510</title>
<polygon fill="none" stroke="black" points="119.5,-0.5 119.5,-36.5 173.5,-36.5 173.5,-0.5 119.5,-0.5"/>
<text text-anchor="middle" x="133" y="-14.8" font-family="Times,serif" font-size="14.00">2</text>
<polyline fill="none" stroke="black" points="146.5,-0.5 146.5,-36.5 "/>
<text text-anchor="middle" x="160" y="-14.8" font-family="Times,serif" font-size="14.00">a</text>
<text text-anchor="middle" x="105.5" y="-40.8" font-family="Times,serif" font-size="14.00">510</text>
</g>
<!-- 511&#45;&#45;510 -->
<g id="edge2" class="edge">
<title>511&#45;&#45;510</title>
<path fill="none" stroke="black" d="M114.2,-75.05C120.73,-63.81 129.69,-48.4 136.52,-36.66"/>
</g>
</g>
</svg>
