<?xml version="1.0" encoding="UTF-8" standalone="no"?>
<!DOCTYPE svg PUBLIC "-//W3C//DTD SVG 1.1//EN"
 "http://www.w3.org/Graphics/SVG/1.1/DTD/svg11.dtd">
<!-- Generated by graphviz version 2.43.0 (0)
 -->
<!-- Title: %15 Pages: 1 -->
<svg width="204pt" height="205pt"
 viewBox="0.00 0.00 203.50 205.00" xmlns="http://www.w3.org/2000/svg" xmlns:xlink="http://www.w3.org/1999/xlink">
<g id="page0,1_graph0" class="graph" transform="scale(1 1) rotate(0) translate(4 201)">
<title>%15</title>
<polygon fill="white" stroke="transparent" points="-4,4 -4,-201 199.5,-201 199.5,4 -4,4"/>
<!-- 511 -->
<g id="node1" class="node">
<title>511</title>
<ellipse fill="none" stroke="black" cx="136.5" cy="-164" rx="18" ry="18"/>
<text text-anchor="middle" x="136.5" y="-160.3" font-family="Times,serif" font-size="14.00">3</text>
<text text-anchor="middle" x="104.5" y="-185.8" font-family="Times,serif" font-size="14.00">511</text>
</g>
<!-- 509 -->
<g id="node2" class="node">
<title>509</title>
<ellipse fill="none" stroke="black" cx="105.5" cy="-91.5" rx="18" ry="18"/>
<text text-anchor="middle" x="105.5" y="-87.8" font-family="Times,serif" font-size="14.00">1</text>
<text text-anchor="middle" x="73.5" y="-113.3" font-family="Times,serif" font-size="14.00">509</text>
</g>
<!-- 511&#45;&#45;509 -->
<g id="edge1" class="edge">
<title>511&#45;&#45;509</title>
<path fill="none" stroke="black" d="M129.62,-147.35C124.55,-135.83 117.69,-120.22 112.58,-108.59"/>
</g>
<!-- 510 -->
<g id="node5" class="node">
<title>510</title>
<polygon fill="none" stroke="black" points="141.5,-73.5 141.5,-109.5 195.5,-109.5 195.5,-73.5 141.5,-73.5"/>
<text text-anchor="middle" x="155" y="-87.8" font-family="Times,serif" font-size="14.00">2</text>
<polyline fill="none" stroke="black" points="168.5,-73.5 168.5,-109.5 "/>
<text text-anchor="middle" x="182" y="-87.8" font-family="Times,serif" font-size="14.00">a</text>
<text text-anchor="middle" x="127.5" y="-113.8" font-family="Times,serif" font-size="14.00">510</text>
</g>
<!-- 511&#45;&#45;510 -->
<g id="edge2" class="edge">
<title>511&#45;&#45;510</title>
<path fill="none" stroke="black" d="M143.6,-147.35C148.68,-136.16 155.52,-121.09 160.75,-109.58"/>
</g>
<!-- 507 -->
<g id="node3" class="node">
<title>507</title>
<polygon fill="none" stroke="black" points="28,-0.5 28,-36.5 101,-36.5 101,-0.5 28,-0.5"/>
<text text-anchor="middle" x="41" y="-14.8" font-family="Times,serif" font-size="14.00">0</text>
<polyline fill="none" stroke="black" points="54,-0.5 54,-36.5 "/>
<text text-anchor="middle" x="77.5" y="-14.8" font-family="Times,serif" font-size="14.00">NYT</text>
<text text-anchor="middle" x="14" y="-40.8" font-family="Times,serif" font-size="14.00">507</text>
</g>
<!-- 509&#45;&#45;507 -->
<g id="edge3" class="edge">
<title>509&#45;&#45;507</title>
<path fill="none" stroke="black" d="M96.8,-75.44C90.22,-64.05 81.18,-48.38 74.33,-36.53"/>
</g>
<!-- 508 -->
<g id="node4" class="node">
<title>508</title>
<polygon fill="none" stroke="black" points="119.5,-0.5 119.5,-36.5 173.5,-36.5 173.5,-0.5 119.5,-0.5"/>
<text text-anchor="middle" x="133.5" y="-14.8" font-family="Times,serif" font-size="14.00">1</text>
<polyline fill="none" stroke="black" points="147.5,-0.5 147.5,-36.5 "/>
<text text-anchor="middle" x="160.5" y="-14.8" font-family="Times,serif" font-size="14.00">r</text>
<text text-anchor="middle" x="105.5" y="-40.8" font-family="Times,serif" font-size="14.00">508</text>
</g>
<!-- 509&#45;&#45;508 -->
<g id="edge4" class="edge">
<title>509&#45;&#45;508</title>
<path fill="none" stroke="black" d="M114.2,-75.44C120.78,-64.05 129.82,-48.38 136.67,-36.53"/>
</g>
</g>
</svg>
