<?xml version="1.0" encoding="UTF-8" standalone="no"?>
<!DOCTYPE svg PUBLIC "-//W3C//DTD SVG 1.1//EN"
 "http://www.w3.org/Graphics/SVG/1.1/DTD/svg11.dtd">
<!-- Generated by graphviz version 2.43.0 (0)
 -->
<!-- Title: %39 Pages: 1 -->
<svg width="216pt" height="351pt"
 viewBox="0.00 0.00 216.00 351.00" xmlns="http://www.w3.org/2000/svg" xmlns:xlink="http://www.w3.org/1999/xlink">
<g id="page0,1_graph0" class="graph" transform="scale(1 1) rotate(0) translate(4 347)">
<title>%39</title>
<polygon fill="white" stroke="transparent" points="-4,4 -4,-347 212,-347 212,4 -4,4"/>
<!-- 511 -->
<g id="node1" class="node">
<title>511</title>
<ellipse fill="none" stroke="black" cx="86" cy="-310" rx="18" ry="18"/>
<text text-anchor="middle" x="86" y="-306.3" font-family="Times,serif" font-size="14.00">5</text>
<text text-anchor="middle" x="54" y="-331.8" font-family="Times,serif" font-size="14.00">511</text>
</g>
<!-- 510 -->
<g id="node2" class="node">
<title>510</title>
<polygon fill="none" stroke="black" points="28,-219.5 28,-255.5 82,-255.5 82,-219.5 28,-219.5"/>
<text text-anchor="middle" x="41.5" y="-233.8" font-family="Times,serif" font-size="14.00">2</text>
<polyline fill="none" stroke="black" points="55,-219.5 55,-255.5 "/>
<text text-anchor="middle" x="68.5" y="-233.8" font-family="Times,serif" font-size="14.00">a</text>
<text text-anchor="middle" x="14" y="-259.8" font-family="Times,serif" font-size="14.00">510</text>
</g>
<!-- 511&#45;&#45;510 -->
<g id="edge1" class="edge">
<title>511&#45;&#45;510</title>
<path fill="none" stroke="black" d="M79.12,-293.35C74.2,-282.16 67.57,-267.09 62.51,-255.58"/>
</g>
<!-- 509 -->
<g id="node3" class="node">
<title>509</title>
<ellipse fill="none" stroke="black" cx="118" cy="-237.5" rx="18" ry="18"/>
<text text-anchor="middle" x="118" y="-233.8" font-family="Times,serif" font-size="14.00">3</text>
<text text-anchor="middle" x="86" y="-208.3" font-family="Times,serif" font-size="14.00">509</text>
</g>
<!-- 511&#45;&#45;509 -->
<g id="edge2" class="edge">
<title>511&#45;&#45;509</title>
<path fill="none" stroke="black" d="M93.1,-293.35C98.4,-281.67 105.62,-265.78 110.92,-254.1"/>
</g>
<!-- 508 -->
<g id="node4" class="node">
<title>508</title>
<polygon fill="none" stroke="black" points="60,-146.5 60,-182.5 114,-182.5 114,-146.5 60,-146.5"/>
<text text-anchor="middle" x="74" y="-160.8" font-family="Times,serif" font-size="14.00">1</text>
<polyline fill="none" stroke="black" points="88,-146.5 88,-182.5 "/>
<text text-anchor="middle" x="101" y="-160.8" font-family="Times,serif" font-size="14.00">r</text>
<text text-anchor="middle" x="46" y="-186.8" font-family="Times,serif" font-size="14.00">508</text>
</g>
<!-- 509&#45;&#45;508 -->
<g id="edge3" class="edge">
<title>509&#45;&#45;508</title>
<path fill="none" stroke="black" d="M111.12,-220.74C106.2,-209.47 99.57,-194.3 94.51,-182.7"/>
</g>
<!-- 507 -->
<g id="node5" class="node">
<title>507</title>
<ellipse fill="none" stroke="black" cx="150" cy="-164.5" rx="18" ry="18"/>
<text text-anchor="middle" x="150" y="-160.8" font-family="Times,serif" font-size="14.00">2</text>
<text text-anchor="middle" x="118" y="-135.3" font-family="Times,serif" font-size="14.00">507</text>
</g>
<!-- 509&#45;&#45;507 -->
<g id="edge4" class="edge">
<title>509&#45;&#45;507</title>
<path fill="none" stroke="black" d="M125.1,-220.74C130.4,-208.98 137.62,-192.97 142.92,-181.21"/>
</g>
<!-- 505 -->
<g id="node6" class="node">
<title>505</title>
<ellipse fill="none" stroke="black" cx="118" cy="-91.5" rx="18" ry="18"/>
<text text-anchor="middle" x="118" y="-87.8" font-family="Times,serif" font-size="14.00">1</text>
<text text-anchor="middle" x="86" y="-113.3" font-family="Times,serif" font-size="14.00">505</text>
</g>
<!-- 507&#45;&#45;505 -->
<g id="edge5" class="edge">
<title>507&#45;&#45;505</title>
<path fill="none" stroke="black" d="M142.9,-147.74C137.6,-135.98 130.38,-119.97 125.08,-108.21"/>
</g>
<!-- 506 -->
<g id="node9" class="node">
<title>506</title>
<polygon fill="none" stroke="black" points="154,-73.5 154,-109.5 208,-109.5 208,-73.5 154,-73.5"/>
<text text-anchor="middle" x="167.5" y="-87.8" font-family="Times,serif" font-size="14.00">1</text>
<polyline fill="none" stroke="black" points="181,-73.5 181,-109.5 "/>
<text text-anchor="middle" x="194.5" y="-87.8" font-family="Times,serif" font-size="14.00">d</text>
<text text-anchor="middle" x="140" y="-113.8" font-family="Times,serif" font-size="14.00">506</text>
</g>
<!-- 507&#45;&#45;506 -->
<g id="edge6" class="edge">
<title>507&#45;&#45;506</title>
<path fill="none" stroke="black" d="M156.88,-147.74C161.8,-136.47 168.43,-121.3 173.49,-109.7"/>
</g>
<!-- 503 -->
<g id="node7" class="node">
<title>503</title>
<polygon fill="none" stroke="black" points="40.5,-0.5 40.5,-36.5 113.5,-36.5 113.5,-0.5 40.5,-0.5"/>
<text text-anchor="middle" x="53.5" y="-14.8" font-family="Times,serif" font-size="14.00">0</text>
<polyline fill="none" stroke="black" points="66.5,-0.5 66.5,-36.5 "/>
<text text-anchor="middle" x="90" y="-14.8" font-family="Times,serif" font-size="14.00">NYT</text>
<text text-anchor="middle" x="26.5" y="-40.8" font-family="Times,serif" font-size="14.00">503</text>
</g>
<!-- 505&#45;&#45;503 -->
<g id="edge7" class="edge">
<title>505&#45;&#45;503</title>
<path fill="none" stroke="black" d="M109.3,-75.44C102.72,-64.05 93.68,-48.38 86.83,-36.53"/>
</g>
<!-- 504 -->
<g id="node8" class="node">
<title>504</title>
<polygon fill="none" stroke="black" points="132,-0.5 132,-36.5 186,-36.5 186,-0.5 132,-0.5"/>
<text text-anchor="middle" x="145.5" y="-14.8" font-family="Times,serif" font-size="14.00">1</text>
<polyline fill="none" stroke="black" points="159,-0.5 159,-36.5 "/>
<text text-anchor="middle" x="172.5" y="-14.8" font-family="Times,serif" font-size="14.00">v</text>
<text text-anchor="middle" x="118" y="-40.8" font-family="Times,serif" font-size="14.00">504</text>
</g>
<!-- 505&#45;&#45;504 -->
<g id="edge8" class="edge">
<title>505&#45;&#45;504</title>
<path fill="none" stroke="black" d="M126.7,-75.44C133.28,-64.05 142.32,-48.38 149.17,-36.53"/>
</g>
</g>
</svg>
